<?xml version="1.0" encoding="UTF-8"?><svg id="a" xmlns="http://www.w3.org/2000/svg" viewBox="0 0 444.18 297.48"><defs><style>.b{fill:#fff;stroke:#231f20;}.b,.c{stroke-miterlimit:10;}.d{fill:#2e388d;}.e,.c{fill:#2d368f;}.c{stroke:#2d368f;}</style></defs><path class="c" d="M.5,33.04V296.82c28.99-8.33,66.09-16.11,109.58-18.43,32.29-1.72,61.09-.04,85.34,2.91,2.24,2.02,10.94,9.36,24.24,9.7,14.53,.37,24.13-7.86,26.18-9.7,28.92-3.08,64.44-4.51,104.73-.97,35.9,3.16,67.24,9.53,93.1,16.49V33.04l-221.63,59.16L.5,33.04Z"/><path class="b" d="M7.29,39.56v249.23c27.31-9.12,66.16-18.82,113.46-20.37,40.87-1.33,75.51,3.84,101.3,9.7,33.6-6.03,78.41-10.32,130.47-4.85,30.29,3.18,57,9.03,79.52,15.52,1.62-83.08,3.23-166.15,4.85-249.23-8.29-4.12-16.41-7.28-24.24-9.7-81.42-25.08-161.04,22.02-190.6,41.7C175.13,44.71,100.11,13.31,22.59,34.66c-5.23,1.44-10.33,3.08-15.3,4.91Z"/><path class="b" d="M17.47,27.73v250.2c24.2-8.38,66.18-19.32,118.31-14.55,36.92,3.38,66.54,13.5,86.76,22.3,23.63-9.84,63.88-23,114.95-22.3,37.47,.51,68.13,8.3,89.22,15.52V27.73c-9.87-1.18-20.23-1.88-31.03-1.94-75.21-.44-135.68,30.15-173.59,55.28C170.89,56.95,110.12,36.97,40.75,29.67c-7.87-.83-15.63-1.47-23.27-1.94Z"/><path class="b" d="M30.56,17.51v254.08c18.85-7.23,54.53-18.08,99.89-14.55,42.37,3.3,74.18,17.68,91.6,27.15,18.71-10.37,57.53-28.47,109.14-28.12,34.37,.23,61.92,8.56,79.52,15.52,.97-84.37,1.94-168.74,2.91-253.11-8.35-1.42-17.08-2.43-26.18-2.91-72.68-3.84-131.87,28.07-166.8,52.27C176.65,40.35,117.43,14.94,48.02,16.54c-5.93,.14-11.75,.47-17.46,.97Z"/><path class="b" d="M47.05,6.85v252.14c19.61-4.92,53.67-10.77,95.04-3.88,36.11,6.01,63.39,19.33,79.97,29.09,15.99-9.16,39.08-19.95,68.41-26.18,46.18-9.81,84.87-3.44,106.67,1.94V6.85c-15.99-3.14-109.71-20.21-160.01,34.91-5.31,5.82-10.5,12.84-15.07,21.33-4.3-9.97-9.58-17.9-14.99-24.24C158.83-17.62,58.54,4.19,47.05,6.85Z"/><line class="b" x1="222.05" y1="63.09" x2="222.05" y2="284.2"/><g><path class="e" d="M257.64,107.58v13.34c0,1.55,.38,2.56,1.13,3.04,.36,.24,.61,.57,.76,.98,.14,.41,.21,1.18,.21,2.3s-.08,1.73-.25,1.98c-.17,.25-.5,.38-.99,.38h-10.24c-.54,0-.81-.84-.81-2.52,0-1.33,.04-2.16,.11-2.46,.08-.31,.33-.58,.77-.82,.39-.21,.64-.45,.73-.7,.1-.25,.15-.69,.15-1.3v-48.38c0-1.15-.4-2.07-1.2-2.76-.42-.4-.64-1.01-.66-1.84l-.02-1.88c0-.8,.06-1.33,.17-1.58,.11-.25,.37-.38,.76-.38h11.57c3.33,0,5.98,1.89,7.97,5.67,1.98,3.78,2.97,9,2.97,15.68,0,3.76-.31,7.12-.92,10.05-.61,2.94-1.38,5.1-2.3,6.49-.93,1.39-2,2.52-3.21,3.4-1.21,.88-2.5,1.32-3.88,1.32h-2.82Zm0-38.17v33.56h1.58c.54,0,1.03-.53,1.46-1.58,.43-1.05,.64-2.81,.64-5.27v-19.98c0-4.49-.84-6.73-2.53-6.73h-1.15Z"/><path class="e" d="M273.82,81.03c-.2-.16-.35-.28-.45-.36-.38-.29-.61-.58-.71-.86-.1-.28-.15-.86-.15-1.74,0-.48,0-.88-.02-1.2,0-.8,.06-1.33,.19-1.58,.13-.25,.41-.38,.85-.38h7.03c.35,0,.56,.09,.63,.28,.08,.19,.11,.64,.11,1.36v39.45c0,3.44,.54,5.17,1.6,5.17,.81,0,1.43-.61,1.85-1.84v-37.05c0-.96-.26-1.71-.79-2.24-.26-.27-.41-.55-.46-.86-.05-.31-.08-1.34-.08-3.1,0-.77,.26-1.16,.77-1.16h7.39c.32,0,.51,.08,.58,.24,.07,.16,.1,.59,.1,1.28v45.9c0,.88,.2,1.5,.61,1.84,.5,.48,.75,1.28,.75,2.4,0,1.6-.03,2.51-.1,2.72-.07,.21-.31,.32-.71,.32h-6.87c-.44,0-.74-.14-.9-.42s-.25-.89-.25-1.82v-1c0-1.07,0-1.67-.02-1.8-2.4,3.74-4.42,5.61-6.08,5.61-1.42,0-2.59-.84-3.5-2.52-.91-1.68-1.36-4.93-1.36-9.73v-36.89Z"/><path class="e" d="M304.24,125.92v2.16c0,1.02-.26,1.52-.79,1.52h-7.57c-.35,0-.52-.33-.52-1v-2.68c0-.35,.17-.65,.5-.92,.6-.51,.9-1.36,.9-2.56v-50.54c0-1.36-.32-2.16-.95-2.4-.3-.11-.45-.48-.45-1.12v-2.04c0-.56,.05-.93,.14-1.1,.09-.17,.31-.26,.66-.26h7.3c.53,0,.79,.45,.79,1.36v12.14c1.49-2.75,3.07-4.13,4.75-4.13,1.95,0,3.6,1.92,4.93,5.74,1.34,3.83,2,11.43,2,22.79,0,10.75-.67,17.99-2.02,21.71-1.34,3.72-2.98,5.58-4.9,5.58-1.54,0-3.13-1.41-4.77-4.25Zm3.34-38.97c0-3.33-.5-5-1.51-5-.54,0-.98,.24-1.32,.72-.34,.48-.51,1.05-.51,1.72v36.04c0,.6,.15,1.11,.46,1.53,.31,.42,.68,.63,1.12,.63,.56,0,.99-.5,1.3-1.5s.46-2.22,.46-3.66v-30.49Z"/><path class="e" d="M318,68.25v-2c0-.85,.32-1.28,.95-1.28h6.98c.38,0,.62,.05,.75,.16,.12,.11,.18,.56,.18,1.36v55.95c0,1.23,.23,1.99,.68,2.28,.32,.21,.47,.67,.47,1.36v2.28c0,.83-.34,1.24-1.02,1.24h-8.29c-.47,0-.7-.41-.7-1.24v-2.28c0-.93,.23-1.63,.7-2.08,.3-.27,.49-.51,.56-.74,.08-.23,.11-.66,.11-1.3v-49.62c0-.93-.2-1.56-.61-1.88-.51-.45-.77-1.19-.77-2.2Z"/><path class="e" d="M330.09,78.86v-2.64c0-.88,.3-1.32,.9-1.32h7.21c.51,0,.77,.44,.77,1.32v46.06c0,.64,.02,1.06,.07,1.24,.04,.19,.18,.36,.4,.52,.53,.37,.8,1.2,.8,2.48,0,1.47-.04,2.35-.11,2.64-.08,.29-.32,.44-.72,.44h-8.75c-.21-.05-.35-.22-.41-.5-.06-.28-.09-1.02-.09-2.22,0-1.44,.2-2.28,.59-2.52,.48-.29,.72-.83,.72-1.6v-39.93c0-1.55-.32-2.48-.97-2.8-.27-.13-.41-.52-.41-1.16Zm6.33-15.34c1.7,0,2.55,1.01,2.55,3.04,0,1.6-.57,2.96-1.71,4.06-1.14,1.11-2.43,1.66-3.88,1.66-1.87,0-2.8-1.11-2.8-3.32,0-1.76,.66-3.11,1.97-4.05,1.31-.93,2.6-1.4,3.86-1.4Z"/><path class="e" d="M353.99,75.82l1.24,11.09c.03,.35,.04,.65,.04,.92,0,.75-.41,1.12-1.22,1.12-.54,0-.94-.12-1.19-.36-.25-.24-.53-.88-.85-1.92-.36-1.23-.91-2.68-1.65-4.37-.74-1.68-1.4-2.52-1.99-2.52-.23,0-.43,.19-.6,.56-.17,.37-.26,.81-.26,1.32,0,1.36,1.1,5.22,3.3,11.56,1.9,5.52,3.19,9.86,3.86,13.01,.68,3.15,1.02,6.7,1.02,10.65,0,4.19-.51,7.45-1.54,9.78-1.03,2.33-2.23,3.5-3.62,3.5-.87,0-1.79-.56-2.76-1.68-.53-.61-.88-.92-1.06-.92-.21,0-.33,.31-.36,.92-.06,.72-.15,1.18-.27,1.38-.12,.2-.51,.3-1.17,.3-.51,0-.84-.13-.99-.4-.15-.27-.26-.73-.32-1.4l-1.13-11.17c-.05-.53-.07-.87-.07-1,0-.75,.5-1.12,1.51-1.12,.53,0,.89,.12,1.1,.36s.46,.93,.78,2.08c1.17,4.35,2.29,6.53,3.34,6.53,.68,0,1.02-.72,1.02-2.16,0-1.28-.25-2.87-.76-4.76-.5-1.89-1.49-5-2.95-9.32-1.54-4.59-2.65-8.43-3.33-11.52-.69-3.09-1.03-6.2-1.03-9.32,0-4.24,.51-7.4,1.54-9.48,1.02-2.08,2.27-3.12,3.73-3.12,.77,0,1.64,.47,2.62,1.4,.5,.48,.84,.72,1.02,.72,.24,0,.38-.28,.43-.84,.06-.59,.18-.95,.36-1.08,.18-.13,.56-.2,1.15-.2,.38,0,.62,.07,.73,.22,.11,.15,.21,.57,.3,1.26Z"/><path class="e" d="M366.4,80.02c2.3-3.79,4.33-5.69,6.08-5.69,1.3,0,2.43,.85,3.39,2.56,.96,1.71,1.45,3.96,1.45,6.77v38.21c0,.99,.16,1.7,.47,2.12,.45,.61,.68,1.5,.68,2.64,0,1.28-.05,2.1-.16,2.44-.11,.35-.35,.52-.72,.52h-5.76c-.5,0-.96-.64-1.38-1.92-.42-1.28-.63-2.8-.63-4.57v-37.29c0-.69-.13-1.33-.4-1.9-.26-.57-.58-.86-.94-.86-.57,0-1.27,.61-2.08,1.84v36.97c0,.88,.2,1.67,.61,2.36,.41,.72,.61,1.34,.61,1.84,0,1.84-.03,2.89-.09,3.14-.06,.25-.35,.38-.88,.38h-8.18c-.35,0-.58-.13-.7-.38-.12-.25-.18-.85-.18-1.78,0-1.15,.03-1.88,.1-2.18,.07-.31,.25-.66,.55-1.06,.44-.56,.66-1.33,.66-2.32v-49.14c0-1.79-.32-2.79-.97-3-.35-.13-.52-.49-.52-1.08v-2.84c0-.56,.19-.84,.56-.84h7.59c.56,0,.84,.48,.84,1.44v13.62Z"/></g><g><path class="d" d="M264.21,160.29c.14-.13,.54-.73,1.2-1.8,.42-.69,.99-1.04,1.69-1.04,.16,0,.82,.09,1.98,.28,.23,.27,.41,.83,.53,1.68l1.91,13.58c.09,.72,.14,1.15,.14,1.28,0,.51-.12,.84-.37,1s-.9,.24-1.96,.24c-1.2,0-1.98-.17-2.33-.52-.35-.35-1.02-1.79-2.01-4.33-2.1-5.37-3.97-8.05-5.61-8.05-1.18,0-1.76,.93-1.76,2.8,0,2.32,1.78,6.89,5.33,13.7,4.07,7.85,6.73,13.53,7.96,17.04,1.24,3.51,1.85,7.44,1.85,11.79,0,5.15-1.07,9.11-3.21,11.85-2.14,2.75-4.55,4.12-7.24,4.12-1.69,0-3.33-.55-4.91-1.64-.61-.43-1.09-.64-1.45-.64-.31,0-.55,.25-.74,.76-.38,1.01-1.29,1.52-2.75,1.52-.56,0-.95-.1-1.15-.3s-.35-.73-.44-1.58l-1.76-13.34c-.24-1.71-.35-2.62-.35-2.72,0-.77,.62-1.16,1.87-1.16,1.7,0,2.7,.25,3,.76s.74,1.67,1.31,3.48c2.07,6.49,4.15,9.73,6.25,9.73,.78,0,1.41-.32,1.89-.96,.48-.64,.72-1.44,.72-2.4,0-1.68-.54-3.68-1.61-5.99-1.07-2.31-2.38-4.88-3.94-7.71-3.72-6.78-6.35-12.2-7.89-16.24-1.54-4.04-2.31-8.18-2.31-12.4,0-4.75,.92-8.54,2.75-11.37,1.84-2.83,4.08-4.25,6.74-4.25,1.84,0,4.06,.94,6.67,2.8Z"/><path class="d" d="M289.21,173.63c3.6-3.79,6.77-5.69,9.5-5.69,2.02,0,3.79,.85,5.3,2.56,1.51,1.71,2.26,3.96,2.26,6.77v38.21c0,.99,.25,1.7,.74,2.12,.71,.61,1.06,1.5,1.06,2.64,0,1.28-.08,2.1-.25,2.44-.17,.35-.54,.52-1.13,.52h-9c-.78,0-1.5-.64-2.15-1.92-.66-1.28-.99-2.8-.99-4.57v-37.29c0-.69-.21-1.33-.62-1.9-.41-.57-.9-.86-1.47-.86-.89,0-1.98,.61-3.25,1.84v36.96c0,.88,.32,1.67,.95,2.36,.64,.72,.95,1.33,.95,1.84,0,1.84-.05,2.89-.14,3.14-.09,.25-.55,.38-1.38,.38h-12.78c-.54,0-.91-.13-1.09-.38-.19-.25-.28-.85-.28-1.78,0-1.15,.05-1.88,.16-2.18,.11-.31,.39-.66,.87-1.06,.68-.56,1.02-1.33,1.02-2.32v-49.14c0-1.79-.51-2.79-1.52-3-.54-.13-.81-.49-.81-1.08v-2.84c0-.56,.29-.84,.88-.84h11.86c.87,0,1.31,.48,1.31,1.44v13.62Z"/><path class="d" d="M326.45,167.94c4.42,0,8.12,2.25,11.09,6.75,2.97,4.5,4.45,11.18,4.45,20.04,0,9.56-1.51,16.79-4.52,21.69-3.01,4.9-6.77,7.35-11.26,7.35-3.11,0-5.8-1.12-8.08-3.36-2.28-2.24-4.04-5.23-5.28-8.97-1.24-3.74-1.85-8.85-1.85-15.34,0-9.26,1.42-16.27,4.25-21.03,2.84-4.75,6.57-7.13,11.21-7.13Zm2.54,10.05c0-3.31-.85-4.97-2.54-4.97-1.84,0-2.75,2.03-2.75,6.09v33.28c0,4.03,.83,6.05,2.51,6.05,1.86,0,2.79-2.02,2.79-6.05v-34.4Z"/><path class="d" d="M359.04,172.43c1.39-1.5,2.66-2.62,3.81-3.36,1.15-.75,2.52-1.12,4.1-1.12,3.62,0,6.27,2.13,7.96,6.39,1.69,4.26,2.53,11.07,2.53,20.45,0,6.09-.27,11.09-.82,15.02-.54,3.92-1.76,7.14-3.64,9.65-1.88,2.51-4.04,3.76-6.49,3.76-2.94,0-5.43-1.84-7.45-5.53v8.93c0,.91,.45,1.54,1.34,1.88,.87,.35,1.31,1,1.31,1.96v1.44c0,.56-.06,.9-.18,1.02-.12,.12-.44,.18-.95,.18h-13.59c-.94,0-1.41-.27-1.41-.8v-1.48c0-.99,.4-1.75,1.2-2.28,.4-.27,.6-.69,.6-1.28v-51.82c0-.99-.31-1.74-.92-2.24-.42-.35-.68-.61-.76-.8-.08-.19-.12-.57-.12-1.16v-1.24c0-.72,.06-1.15,.19-1.28,.13-.13,.48-.2,1.04-.2h10.77c.68,0,1.1,.09,1.25,.28,.15,.19,.23,.67,.23,1.44v2.2Zm5.44,7.57c0-1.66-.29-2.89-.88-3.7-.59-.81-1.24-1.22-1.94-1.22-.52,0-1.08,.35-1.7,1.04s-.92,1.48-.92,2.36v33.64c0,.72,.33,1.48,.99,2.28,.66,.8,1.42,1.2,2.29,1.2,1.44,0,2.15-1.27,2.15-3.8v-31.8Z"/></g><g><path class="e" d="M88.27,160.29c.16-.13,.61-.73,1.36-1.8,.48-.69,1.12-1.04,1.92-1.04,.19,0,.94,.09,2.25,.28,.27,.27,.47,.83,.6,1.68l2.16,13.58c.11,.72,.16,1.15,.16,1.28,0,.51-.14,.84-.42,1-.28,.16-1.02,.24-2.22,.24-1.36,0-2.25-.17-2.65-.52s-1.16-1.79-2.29-4.33c-2.38-5.37-4.5-8.05-6.37-8.05-1.34,0-2,.93-2,2.8,0,2.32,2.02,6.89,6.05,13.7,4.62,7.85,7.64,13.53,9.04,17.04,1.4,3.51,2.1,7.44,2.1,11.79,0,5.15-1.22,9.11-3.65,11.85-2.43,2.75-5.17,4.12-8.22,4.12-1.92,0-3.78-.55-5.57-1.64-.7-.43-1.24-.64-1.64-.64-.35,0-.63,.25-.84,.76-.43,1.01-1.47,1.52-3.13,1.52-.64,0-1.08-.1-1.3-.3s-.39-.73-.5-1.58l-2-13.34c-.27-1.71-.4-2.62-.4-2.72,0-.77,.71-1.16,2.12-1.16,1.92,0,3.06,.25,3.41,.76,.35,.51,.84,1.67,1.48,3.48,2.35,6.49,4.72,9.73,7.1,9.73,.88,0,1.6-.32,2.14-.96,.55-.64,.82-1.44,.82-2.4,0-1.68-.61-3.68-1.82-5.99-1.22-2.31-2.71-4.88-4.47-7.71-4.22-6.78-7.21-12.2-8.96-16.24-1.75-4.04-2.63-8.18-2.63-12.4,0-4.75,1.04-8.54,3.13-11.37,2.08-2.83,4.64-4.25,7.66-4.25,2.08,0,4.61,.94,7.58,2.8Z"/><path class="e" d="M102.95,173.99h-1.56c-.46,0-.74-.05-.86-.16-.12-.11-.18-.4-.18-.88v-2.88c0-.53,.06-.88,.18-1.04,.12-.16,.47-.28,1.06-.36,1.92-.29,3.86-1.36,5.81-3.2,1.95-1.84,3.11-3.82,3.49-5.93,.13-.75,.3-1.21,.5-1.38,.2-.17,.61-.26,1.22-.26h2.61c.69,0,1.04,.47,1.04,1.4v9.21h2.49c.94,0,1.4,.44,1.4,1.32v2.88c0,.85-.47,1.28-1.4,1.28h-2.49v41.49c0,1.42,.63,2.43,1.88,3.04,.61,.29,1.02,.65,1.2,1.08,.19,.43,.28,1.2,.28,2.32,0,.69-.05,1.08-.14,1.16-.09,.08-.42,.12-.98,.12h-12.67c-1.92-1.71-2.89-4.29-2.89-7.73v-41.49Z"/><path class="e" d="M140.99,167.94c5.02,0,9.22,2.25,12.59,6.75,3.37,4.5,5.05,11.18,5.05,20.04,0,9.56-1.71,16.79-5.13,21.69-3.42,4.9-7.68,7.35-12.79,7.35-3.53,0-6.59-1.12-9.18-3.36-2.59-2.24-4.59-5.23-5.99-8.97-1.4-3.74-2.1-8.85-2.1-15.34,0-9.26,1.61-16.27,4.83-21.03,3.22-4.75,7.46-7.13,12.73-7.13Zm2.89,10.05c0-3.31-.96-4.97-2.89-4.97-2.08,0-3.13,2.03-3.13,6.09v33.28c0,4.03,.95,6.05,2.85,6.05,2.11,0,3.17-2.02,3.17-6.05v-34.4Z"/><path class="e" d="M177.99,172.43c1.58-1.5,3.02-2.62,4.33-3.36,1.31-.75,2.86-1.12,4.65-1.12,4.11,0,7.12,2.13,9.04,6.39,1.91,4.26,2.87,11.07,2.87,20.45,0,6.09-.31,11.09-.93,15.02-.62,3.92-1.99,7.14-4.13,9.65s-4.59,3.76-7.37,3.76c-3.34,0-6.16-1.84-8.46-5.53v8.93c0,.91,.51,1.54,1.52,1.88,.99,.35,1.48,1,1.48,1.96v1.44c0,.56-.07,.9-.2,1.02-.13,.12-.5,.18-1.08,.18h-15.43c-1.07,0-1.6-.27-1.6-.8v-1.48c0-.99,.45-1.75,1.36-2.28,.45-.27,.68-.69,.68-1.28v-51.82c0-.99-.35-1.74-1.04-2.24-.48-.35-.77-.61-.86-.8-.09-.19-.14-.57-.14-1.16v-1.24c0-.72,.07-1.15,.22-1.28,.15-.13,.54-.2,1.18-.2h12.23c.77,0,1.25,.09,1.42,.28,.17,.19,.26,.67,.26,1.44v2.2Zm6.17,7.57c0-1.66-.33-2.89-1-3.7-.67-.81-1.4-1.22-2.21-1.22-.59,0-1.23,.35-1.92,1.04-.7,.69-1.04,1.48-1.04,2.36v33.64c0,.72,.37,1.48,1.12,2.28,.75,.8,1.62,1.2,2.61,1.2,1.63,0,2.45-1.27,2.45-3.8v-31.8Z"/></g><g><path class="e" d="M92.86,92.19c3.95,1.71,6.67,3.82,8.16,6.35s2.23,6,2.23,10.43c0,6.75-1.37,11.79-4.11,15.1s-6.98,4.97-12.72,4.97h-15.83c-.65,0-.97-.41-.97-1.24v-2.4c0-.67,.29-1.16,.87-1.48,1.23-.72,1.84-1.77,1.84-3.16v-48.34c0-.67-.09-1.12-.26-1.36-.17-.24-.69-.61-1.55-1.12-.43-.24-.69-.51-.76-.8-.08-.29-.11-1.01-.11-2.16,0-1.01,.11-1.7,.34-2.04,.23-.35,.62-.52,1.18-.52h17.74c4.27,0,7.55,1.35,9.84,4.04,2.29,2.7,3.43,6.13,3.43,10.29,0,3.47-.9,6.38-2.7,8.73-1.8,2.35-4.01,3.92-6.62,4.73Zm-8.48-23.27v21.03h1.72c1.08,0,1.93-.39,2.54-1.16,.61-.77,.97-2.06,1.07-3.86s.15-4.08,.15-6.83c0-3.84-.3-6.33-.89-7.47-.59-1.13-1.55-1.7-2.86-1.7h-1.72Zm0,25.59v29.92c1.98,0,3.32-.33,4-1,.68-.67,1.08-1.99,1.2-3.96,.12-1.98,.18-5.31,.18-10.01,0-.96-.03-3.14-.1-6.55-.06-3.4-.19-5.45-.39-6.15-.19-.69-.53-1.24-1.02-1.64-.49-.4-1.2-.6-2.15-.6h-1.72Z"/><path class="e" d="M120.69,73.77c4.06,0,7.44,2.25,10.16,6.75,2.72,4.5,4.08,11.18,4.08,20.04,0,9.56-1.38,16.79-4.14,21.69-2.76,4.9-6.2,7.35-10.32,7.35-2.85,0-5.32-1.12-7.41-3.36-2.09-2.24-3.71-5.23-4.84-8.97-1.13-3.74-1.7-8.85-1.7-15.34,0-9.26,1.3-16.27,3.9-21.03,2.6-4.75,6.03-7.13,10.28-7.13Zm2.33,10.05c0-3.31-.78-4.97-2.33-4.97-1.68,0-2.52,2.03-2.52,6.09v33.28c0,4.03,.77,6.05,2.3,6.05,1.7,0,2.56-2.02,2.56-6.05v-34.4Z"/><path class="e" d="M152.44,73.77c4.06,0,7.44,2.25,10.16,6.75,2.72,4.5,4.08,11.18,4.08,20.04,0,9.56-1.38,16.79-4.14,21.69-2.76,4.9-6.2,7.35-10.32,7.35-2.85,0-5.32-1.12-7.41-3.36-2.09-2.24-3.71-5.23-4.84-8.97-1.13-3.74-1.7-8.85-1.7-15.34,0-9.26,1.3-16.27,3.9-21.03,2.6-4.75,6.03-7.13,10.28-7.13Zm2.33,10.05c0-3.31-.78-4.97-2.33-4.97-1.68,0-2.52,2.03-2.52,6.09v33.28c0,4.03,.77,6.05,2.3,6.05,1.7,0,2.56-2.02,2.56-6.05v-34.4Z"/><path class="e" d="M182.48,111.45v10.73c0,.72,.28,1.28,.84,1.68,.43,.29,.65,.81,.65,1.56v2.12c0,.99-.41,1.48-1.23,1.48h-11.72c-.78,0-1.17-.6-1.17-1.8v-1.88c0-.45,.31-.97,.94-1.56,.52-.51,.8-.87,.86-1.08,.05-.21,.08-.55,.08-1v-47.94c0-1.71-.42-2.94-1.26-3.68-.28-.27-.44-.51-.47-.72-.03-.21-.05-.73-.05-1.56,0-1.74,.03-2.74,.08-3,.05-.27,.38-.4,.99-.4h10.26c.54,0,.87,.1,1,.3s.19,.69,.19,1.46v34.71l5.93-16.86c.39-1.06,.58-1.78,.58-2.16,0-.88-.5-1.57-1.51-2.08-.45-.21-.75-.48-.9-.8-.15-.32-.22-.97-.22-1.96,0-1.23,.1-1.98,.29-2.26,.19-.28,.56-.42,1.1-.42h8.93c.5,.08,.74,.79,.74,2.12,0,1.2-.09,2.02-.27,2.44-.18,.43-.59,.84-1.21,1.24-.97,.59-1.65,1.38-2.04,2.36l-2.26,5.91,6.89,32.94c.19,.99,.65,1.78,1.36,2.36,.47,.37,.71,.95,.71,1.72v2.12c0,.99-.44,1.48-1.33,1.48h-8.71c-1.1,0-1.81-.88-2.14-2.64l-3.69-20.5-2.27,5.56Z"/></g></svg>