<?xml version="1.0" standalone="no"?>
<!DOCTYPE svg PUBLIC "-//W3C//DTD SVG 20010904//EN"
 "http://www.w3.org/TR/2001/REC-SVG-20010904/DTD/svg10.dtd">
<svg version="1.0" xmlns="http://www.w3.org/2000/svg"
 width="445.000000pt" height="445.000000pt" viewBox="0 0 445.000000 445.000000"
 preserveAspectRatio="xMidYMid meet">
<metadata>
Created by potrace 1.14, written by Peter Selinger 2001-2017
</metadata>
<g transform="translate(0.000000,445.000000) scale(0.100000,-0.100000)"
fill="#000000" stroke="none">
<path d="M937 3714 c-1 -1 -42 -4 -92 -8 -80 -5 -234 -26 -305 -41 -80 -16
-75 -12 -72 -60 5 -53 4 -53 -93 -57 l-70 -3 -3 -55 -3 -56 -64 4 -65 4 0 -40
c0 -23 -4 -43 -9 -47 -6 -3 -43 4 -83 15 -40 11 -73 20 -74 20 -2 0 -2 -596
-2 -1325 0 -1232 1 -1325 16 -1321 77 22 232 60 353 85 181 38 173 36 354 60
136 18 198 24 380 36 144 10 521 5 660 -10 22 -2 72 -7 110 -11 55 -5 81 -13
120 -39 133 -86 297 -86 425 0 54 36 58 37 310 52 220 13 631 7 790 -12 373
-43 504 -65 750 -123 69 -17 136 -32 149 -34 l24 -3 0 1318 c0 724 -2 1319 -4
1322 -3 2 -31 -3 -63 -11 -82 -21 -106 -14 -106 34 0 36 -1 37 -43 40 -81 5
-82 5 -85 49 l-3 41 -77 8 -77 9 -3 48 c-2 26 -4 47 -5 47 -1 0 -38 6 -82 14
-45 8 -112 18 -150 22 -90 10 -429 11 -520 1 -438 -47 -757 -219 -956 -515
l-48 -73 -30 60 c-156 308 -490 501 -945 547 -59 6 -304 12 -309 8z"/>
</g>
</svg>
